<?xml version="1.0" encoding="utf-8"?>
<!-- Generator: Adobe Illustrator 24.2.1, SVG Export Plug-In . SVG Version: 6.00 Build 0)  -->
<svg version="1.1" id="Layer_1" xmlns="http://www.w3.org/2000/svg" xmlns:xlink="http://www.w3.org/1999/xlink" x="0px" y="0px"
	 viewBox="0 0 472 80" style="enable-background:new 0 0 472 80;" xml:space="preserve">
<style type="text/css">
	.st0{fill:#0B1F47;}
	.st1{fill-rule:evenodd;clip-rule:evenodd;fill:#0B1F47;}
	.st2{fill-rule:evenodd;clip-rule:evenodd;fill:#6EA02F;}
</style>
<g id="logo" transform="translate(-2450.79 -1797.471)">
	<g id="Group_135">
		<g id="Group_133">
			<path id="Path_387" class="st0" d="M2570.5,1814.1c0.6,0,1,0.2,1,0.5c0,0.4-0.2,0.5-0.6,0.5c-0.4,0-0.8,0.1-1.2,0.3
				c-0.5,0.6-0.9,1.2-1.1,2l-6.6,17.2c-0.3,0.6-0.5,0.9-0.7,0.9c-0.3,0-0.6-0.4-0.8-1.1l-3.6-10.6l-4.5,10.8
				c-0.3,0.6-0.5,0.9-0.7,0.9c-0.3,0-0.5-0.4-0.8-1.1l-7.1-17c-0.2-0.6-0.6-1.2-0.9-1.8c-0.3-0.3-0.7-0.5-1.2-0.5
				c-0.5,0-0.7-0.2-0.7-0.6c0-0.2,0.1-0.3,0.2-0.4c0.2-0.1,0.4-0.2,0.7-0.2c0.2,0,0.5,0,0.7,0c0.2,0,0.4,0.1,0.6,0.1
				c0.5,0.1,1,0.1,1.5,0.1l2.6-0.2c0.7,0,1,0.2,1,0.5c0,0.1-0.1,0.3-0.2,0.4c-0.2,0.1-0.4,0.2-0.6,0.2c-0.2,0-0.5,0-0.7,0.1
				c-0.2,0-0.3,0.1-0.4,0.2c-0.2,0.1-0.3,0.3-0.2,0.5c0.1,0.8,0.3,1.5,0.6,2.2l5.5,13.3l3.9-9.5l-1.4-4.3c-0.2-0.7-0.5-1.3-1-1.9
				c-0.4-0.4-1-0.6-1.5-0.6c-0.6,0-0.8-0.2-0.8-0.6c0-0.2,0.1-0.3,0.2-0.4c0.2-0.1,0.4-0.2,0.7-0.2c0.2,0,0.5,0,0.7,0
				c0.2,0,0.4,0.1,0.6,0.1c0.5,0.1,1,0.1,1.5,0.1l3.4-0.2c0.7,0,1,0.2,1,0.5c0,0.3-0.3,0.5-0.8,0.5c-1.1,0-1.6,0.3-1.6,1
				c0.1,0.9,0.3,1.8,0.6,2.7l4.3,12.5l4.7-13.1c0.2-0.6,0.4-1.2,0.4-1.8c0-0.8-0.6-1.3-1.9-1.3c-0.4,0-0.7-0.2-0.7-0.5
				s0.3-0.5,1-0.5c0.4,0,0.7,0,1.1,0.1c0.5,0.1,1,0.1,1.5,0.1L2570.5,1814.1z"/>
			<path id="Path_388" class="st0" d="M2574.8,1833.1c-0.6-0.7-1.1-1.5-1.4-2.3c-0.3-1-0.5-2-0.5-3c0-1,0.2-2.1,0.6-3
				c1.1-2.7,3.7-4.4,6.6-4.4c1.5-0.1,3,0.5,4,1.7c1,1.1,1.5,2.5,1.5,3.9c0,0.4,0,0.7-0.2,1c-0.1,0.2-0.3,0.3-0.5,0.3
				c-0.3,0-0.6,0.1-0.8,0.1c-0.4,0-0.8,0.1-1.3,0.1s-1.1,0.1-1.7,0.1s-1.3,0.1-1.9,0.1c-1.5,0.1-2.7,0.2-3.6,0.3
				c0.2,2.7,1.3,4.5,3.1,5.3c0.6,0.3,1.3,0.4,2,0.4c1.3,0.1,2.5-0.4,3.5-1.3c0.4-0.4,0.6-0.5,0.8-0.6c0.4,0,0.5,0.2,0.5,0.7
				c0,0.3-0.2,0.6-0.5,0.8c-0.4,0.4-0.8,0.7-1.3,1c-1.1,0.6-2.3,0.9-3.5,0.9c-1.1,0-2.2-0.1-3.3-0.6
				C2576.2,1834.3,2575.4,1833.8,2574.8,1833.1z M2575.6,1826.9c4.8-0.2,7.3-0.5,7.5-0.8c0.1-0.3,0.2-0.6,0.1-0.9
				c0-0.5-0.1-1-0.3-1.5c-0.2-0.5-0.4-0.9-0.8-1.2c-0.7-0.7-1.6-1-2.5-1c-1.1,0-2.2,0.5-2.9,1.4
				C2576,1824,2575.5,1825.4,2575.6,1826.9L2575.6,1826.9z"/>
			<path id="Path_389" class="st0" d="M2588.5,1832.9c-0.2-0.3-0.4-0.6-0.4-0.9c0-0.2,0-0.4,0.1-0.5c0.1-0.1,0.2-0.2,0.3-0.3
				c0.2-0.2,0.5-0.4,0.8-0.4c0.2,0,0.4,0.1,0.6,0.2c0.2,0.2,0.3,0.4,0.4,0.7c0.1,0.3,0.3,0.7,0.5,1c0.2,0.3,0.5,0.6,0.8,0.8
				c0.7,0.5,1.6,0.8,2.4,0.7c0.8,0,1.5-0.2,2.2-0.6c0.6-0.3,0.9-0.9,0.9-1.6c0-0.7-0.3-1.3-0.8-1.7c-0.8-0.6-1.7-1.1-2.7-1.5
				c-0.9-0.3-1.7-0.7-2.5-1.2c-0.5-0.3-0.9-0.6-1.2-1c-0.6-0.7-0.9-1.5-0.9-2.4c0-1,0.5-2,1.4-2.6c2-1.3,4.6-1.4,6.7-0.3
				c0.7,0.5,1.1,0.9,1.1,1.4c0,0.3-0.2,0.5-0.4,0.7c-0.2,0.2-0.5,0.3-0.8,0.3c-0.2,0-0.4,0-0.6-0.1c-0.2-0.2-0.4-0.5-0.6-0.8
				c-0.5-0.8-1.4-1.3-2.4-1.2c-0.9-0.1-1.8,0.3-2.4,1.1c-0.1,0.2-0.2,0.4-0.2,0.7c0,0.2,0,0.5,0.1,0.7c0.1,0.3,0.3,0.5,0.5,0.7
				c0.9,0.7,2,1.2,3.1,1.6c2.9,1.2,4.4,2.8,4.4,4.7c0,1.2-0.6,2.4-1.5,3.1c-2.4,1.6-5.5,1.6-7.8,0
				C2589.1,1833.7,2588.8,1833.3,2588.5,1832.9z"/>
			<path id="Path_390" class="st0" d="M2610,1821.9c0,0.3-0.2,0.4-0.5,0.4l-4.3,0v8.5c0,1.6,0.4,2.5,1.1,2.8
				c0.3,0.1,0.5,0.1,0.8,0.1c0.3,0,0.6,0,0.9-0.2c0.2-0.1,0.5-0.2,0.7-0.3c0.2-0.1,0.4-0.2,0.5-0.3c0.1-0.1,0.3-0.2,0.4-0.2
				c0.1,0,0.3,0.1,0.3,0.2c0.1,0.1,0.1,0.3,0.2,0.4c0,0.4-0.5,0.8-1.4,1.3c-0.8,0.4-1.7,0.6-2.6,0.6c-1,0-1.9-0.4-2.5-1.1
				c-0.6-0.9-1-2-0.9-3.1v-8.7h-0.9c-0.7,0-1.1-0.2-1.1-0.6c0-0.3,0.2-0.5,0.6-0.6c0.4-0.1,0.7-0.3,1.1-0.5c0.3-0.3,0.5-0.6,0.7-0.9
				c0.2-0.3,0.3-0.7,0.5-1c0.1-0.4,0.2-0.7,0.3-1c0.2-0.7,0.5-1,0.8-1c0.3,0,0.5,0.3,0.5,0.9v3.5l4.3-0.1c0.2,0,0.4,0.3,0.5,0.8
				C2610,1821.8,2610,1821.8,2610,1821.9z"/>
			<path id="Path_391" class="st0" d="M2613.8,1833.1c-0.6-0.7-1.1-1.5-1.4-2.3c-0.3-1-0.5-2-0.5-3c0-1,0.2-2.1,0.6-3
				c1.1-2.7,3.7-4.4,6.6-4.4c1.5-0.1,3,0.5,4,1.7c1,1.1,1.5,2.5,1.5,3.9c0,0.4,0,0.7-0.2,1c-0.1,0.2-0.3,0.3-0.5,0.3
				c-0.3,0-0.6,0.1-0.8,0.1c-0.4,0-0.8,0.1-1.3,0.1s-1.1,0.1-1.7,0.1s-1.3,0.1-1.9,0.1c-1.5,0.1-2.7,0.2-3.6,0.3
				c0.2,2.7,1.3,4.5,3.2,5.3c0.6,0.3,1.3,0.4,2,0.4c1.3,0.1,2.5-0.4,3.5-1.3c0.4-0.4,0.6-0.5,0.8-0.6c0.4,0,0.6,0.2,0.6,0.7
				c0,0.3-0.2,0.6-0.5,0.8c-0.4,0.4-0.8,0.7-1.3,1c-1.1,0.6-2.3,0.9-3.5,0.9c-1.1,0-2.2-0.1-3.3-0.6
				C2615.1,1834.3,2614.4,1833.8,2613.8,1833.1z M2614.5,1826.9c4.8-0.2,7.3-0.5,7.5-0.8c0.1-0.3,0.2-0.6,0.1-0.9
				c0-0.5-0.1-1-0.3-1.5c-0.2-0.5-0.4-0.9-0.8-1.2c-0.7-0.7-1.6-1-2.5-1c-1.1,0-2.2,0.5-2.9,1.4
				C2614.9,1824,2614.5,1825.4,2614.5,1826.9L2614.5,1826.9z"/>
			<path id="Path_392" class="st0" d="M2627.5,1835.1c-0.7,0-1-0.2-1-0.6c0-0.3,0.2-0.4,0.6-0.4l0.8,0.1c0.2,0,0.4,0,0.6-0.1
				c0.2-0.1,0.3-0.3,0.4-0.6c0.2-1.1,0.3-2.3,0.2-3.5v-4.6c0-0.7,0-1.3-0.2-1.9c-0.1-0.2-0.3-0.4-0.5-0.5c-0.3-0.1-0.6-0.2-0.9-0.2
				c-0.4-0.1-0.6-0.2-0.6-0.5c0-0.2,0.3-0.4,0.8-0.5c0.9-0.1,1.7-0.4,2.5-0.8c0.4-0.3,0.8-0.4,1.3-0.5c0.2,0,0.3,0.1,0.3,0.3
				c0,0,0,0.1,0,0.1c0,0.1,0,0.2-0.1,0.4c0,0.1-0.1,0.3-0.1,0.4c-0.1,0.6-0.2,1.3-0.2,2c0.7-1.3,1.8-2.3,3.2-2.8
				c0.4-0.1,0.8-0.2,1.2-0.2c0.5,0,0.9,0.2,1.2,0.5c0.3,0.3,0.5,0.6,0.5,1c0,0.3,0,0.6-0.1,0.8c-0.1,0.2-0.2,0.3-0.3,0.4
				c-0.2,0.2-0.4,0.4-0.7,0.4c-0.2,0-0.3,0-0.5-0.2c-0.2-0.2-0.3-0.4-0.4-0.6c-0.3-0.5-0.5-0.8-0.9-0.8c-0.3,0-0.6,0.1-0.9,0.2
				c-0.3,0.2-0.6,0.4-0.9,0.6c-0.7,0.7-1.2,1.5-1.6,2.4v4.6c-0.1,1.1,0,2.3,0.2,3.4c0.1,0.3,0.2,0.5,0.4,0.6
				c0.2,0.1,0.4,0.1,0.6,0.1l1.4-0.1c0.2,0,0.3,0,0.5,0.1c0.1,0.1,0.2,0.2,0.2,0.4c0,0.4-0.4,0.6-1.1,0.6l-3.2-0.2
				c-0.5,0-1,0-1.5,0.1C2628.4,1835,2627.9,1835.1,2627.5,1835.1z"/>
			<path id="Path_393" class="st0" d="M2639.7,1835.1c-0.7,0-1-0.2-1-0.6c0-0.3,0.2-0.4,0.6-0.4l0.8,0.1c0.2,0,0.4,0,0.6-0.1
				c0.2-0.1,0.3-0.3,0.4-0.6c0.2-1.1,0.3-2.3,0.2-3.5v-4.6c0-0.7,0-1.3-0.2-1.9c-0.1-0.2-0.3-0.4-0.5-0.5c-0.3-0.1-0.6-0.2-0.9-0.2
				c-0.4-0.1-0.6-0.2-0.6-0.5c0-0.2,0.3-0.4,0.8-0.5c0.9-0.1,1.8-0.4,2.6-0.8c0.4-0.3,0.8-0.4,1.2-0.5c0.2,0,0.3,0.1,0.3,0.3
				c0,0,0,0,0,0l0,0c0,0,0,0.1,0,0.1c0,0.1,0,0.2-0.1,0.4c-0.2,0.8-0.4,1.6-0.3,2.4c0.5-0.9,1.3-1.7,2.2-2.3
				c0.8-0.5,1.7-0.8,2.6-0.8c0.7,0,1.5,0.1,2.2,0.3c0.6,0.2,1.1,0.5,1.5,1c0.9,1.1,1.4,2.6,1.3,4v4.2c0,1.1,0,2.2,0.2,3.3
				c0,0.3,0.2,0.5,0.4,0.7c0.2,0.1,0.4,0.1,0.6,0.1l0.8-0.1c0.4,0,0.6,0.1,0.6,0.4c0,0.4-0.3,0.6-1,0.6c-0.4,0-0.8,0-1.3-0.1
				c-0.5-0.1-0.9-0.1-1.4-0.1c-0.5,0-1,0-1.4,0.1c-0.4,0.1-0.9,0.1-1.3,0.1c-0.7,0-1-0.2-1-0.6c0-0.3,0.2-0.4,0.6-0.4l0.8,0.1
				c0.2,0,0.4,0,0.6-0.1c0.2-0.1,0.3-0.3,0.4-0.6c0.2-1.1,0.3-2.3,0.2-3.5v-3.5c0-2.9-1.1-4.4-3.2-4.4c-1.5,0-2.8,0.8-3.5,2
				c-0.3,0.6-0.6,1.2-0.7,1.8v4c0,1.1,0,2.2,0.2,3.3c0.1,0.3,0.2,0.5,0.4,0.7c0.2,0.1,0.4,0.1,0.6,0.1l0.8-0.1
				c0.4,0,0.6,0.1,0.6,0.4c0,0.4-0.3,0.6-1,0.6c-0.4,0-0.8,0-1.2-0.1c-0.5-0.1-1-0.1-1.5-0.1c-0.5,0-1,0-1.5,0.1
				C2640.5,1835,2640.1,1835.1,2639.7,1835.1z"/>
			<path id="Path_394" class="st0" d="M2666.1,1834.9c-0.5,0.1-1,0.1-1.5,0.1c-0.5,0-0.8-0.2-0.8-0.5c0-0.3,0.2-0.5,0.7-0.5
				c0.4,0,0.8-0.1,1.1-0.3c0.4-0.4,0.8-1,1-1.5l0.9-2c0.3-0.6,0.6-1.3,1-2.2c0.4-0.8,0.8-1.8,1.2-2.8c0.5-1,0.9-2.1,1.4-3.3
				c1.3-3,2.2-5.1,2.6-6.1l0.7-1.7c0-0.1,0.1-0.2,0.1-0.3c0.1-0.2,0.2-0.3,0.3-0.3c0.1,0,0.2,0,0.2,0c0.1,0,0.1,0.1,0.2,0.1
				c0.2,0.3,0.3,0.6,0.5,0.9c0.2,0.4,0.4,0.9,0.6,1.6s0.6,1.4,0.9,2.2c0.3,0.8,0.7,1.7,1.1,2.7c0.4,0.9,0.8,1.9,1.1,2.8
				c0.4,0.9,0.8,1.9,1.1,2.7c0.4,0.9,0.7,1.7,1,2.4c0.9,2.1,1.4,3.4,1.7,3.8c0.2,0.3,0.4,0.6,0.6,0.9c0.3,0.3,0.7,0.4,1.1,0.4
				c0.5,0,0.7,0.2,0.7,0.5c0,0.3-0.3,0.5-1,0.5c-0.2,0-0.5,0-0.7,0c-0.2,0-0.4,0-0.6-0.1c-0.5-0.1-1-0.1-1.6-0.1l-2.9,0.2
				c-0.7,0-1-0.2-1-0.6c0-0.3,0.2-0.5,0.6-0.5l0.9,0.1c0.3,0,0.6-0.1,0.8-0.3c0.1-0.2,0.2-0.4,0.2-0.6c-0.1-0.8-0.3-1.5-0.6-2.2
				l-1.3-3.2h-8.5c-0.2,0.6-0.5,1.2-0.7,1.7c-0.2,0.5-0.4,1-0.6,1.5c-0.2,0.6-0.4,1.2-0.4,1.8c0,0.3,0.1,0.7,0.2,1
				c0.2,0.2,0.6,0.4,0.9,0.3l0.9-0.1c0.4,0,0.6,0.1,0.6,0.4c0,0.4-0.3,0.6-1,0.6l-2.5-0.2
				C2667.1,1834.8,2666.6,1834.9,2666.1,1834.9z M2678.1,1826.5l-3.6-9.1c-0.7,1.8-2,4.8-3.8,9.1H2678.1z"/>
			<path id="Path_395" class="st0" d="M2695.5,1821.9c0,0.3-0.2,0.4-0.5,0.4l-4.3,0v8.5c0,1.6,0.4,2.5,1.1,2.8
				c0.5,0.2,1.1,0.2,1.7,0c0.2-0.1,0.5-0.2,0.7-0.3c0.2-0.1,0.4-0.2,0.5-0.3c0.1-0.1,0.3-0.2,0.4-0.2c0.1,0,0.3,0.1,0.3,0.2
				c0.1,0.1,0.1,0.3,0.2,0.4c0,0.4-0.5,0.8-1.4,1.3c-0.8,0.4-1.7,0.6-2.6,0.6c-1,0-1.9-0.4-2.5-1.1c-0.6-0.9-1-2-0.9-3.1v-8.7h-0.9
				c-0.7,0-1.1-0.2-1.1-0.6c0-0.3,0.2-0.5,0.6-0.6c0.4-0.1,0.7-0.3,1.1-0.5c0.3-0.3,0.5-0.6,0.7-0.9c0.2-0.3,0.3-0.7,0.5-1
				c0.1-0.4,0.2-0.7,0.3-1c0.2-0.7,0.5-1,0.8-1c0.3,0,0.5,0.3,0.5,0.9v3.5l4.3-0.1c0.2,0,0.4,0.3,0.5,0.8
				C2695.5,1821.8,2695.5,1821.8,2695.5,1821.9z"/>
			<path id="Path_396" class="st0" d="M2698.1,1835.1c-0.7,0-1-0.2-1-0.6c0-0.3,0.2-0.4,0.6-0.4l0.8,0.1c0.2,0,0.4,0,0.6-0.1
				c0.2-0.1,0.3-0.3,0.4-0.6c0.2-1.1,0.3-2.3,0.2-3.5v-11.4c0-1.7-0.4-2.6-1.1-2.7c-0.5-0.1-0.8-0.2-0.8-0.5c0-0.2,0.2-0.4,0.7-0.5
				c0.4-0.1,0.9-0.2,1.3-0.4c0.4-0.1,0.7-0.3,1-0.4c0.3-0.1,0.5-0.3,0.8-0.4c0.1-0.1,0.3-0.1,0.4-0.2c0.2,0,0.3,0.1,0.4,0.3
				c0,0,0,0,0,0c0,0,0,0.1,0,0.1c0,0.1,0,0.2-0.1,0.4c-0.2,0.7-0.3,1.4-0.3,2.1c0,0.8,0,1.5,0,2.1v11.5c0,1.1,0,2.2,0.2,3.3
				c0,0.3,0.2,0.5,0.4,0.7c0.2,0.1,0.4,0.1,0.6,0.1l0.8-0.1c0.4,0,0.6,0.1,0.6,0.4c0,0.4-0.3,0.6-1,0.6c-0.4,0-0.8,0-1.2-0.1
				c-0.5-0.1-1-0.1-1.4-0.1c-0.5,0-1,0-1.5,0.1C2698.9,1835,2698.5,1835.1,2698.1,1835.1z"/>
			<path id="Path_397" class="st0" d="M2720.4,1832.8c0.3,0,0.4,0.1,0.4,0.4s-0.3,0.5-0.9,0.8c-0.4,0.2-0.9,0.4-1.2,0.7l-0.5,0.4
				c-0.1,0.1-0.3,0.1-0.4,0.1c-0.3,0-0.6-0.1-0.8-0.4c-0.3-0.5-0.6-1.1-0.8-1.6c-0.6,0.7-1.3,1.2-2.1,1.5c-0.8,0.3-1.6,0.5-2.5,0.5
				c-1.3,0.1-2.6-0.3-3.6-1.2c-0.9-0.8-1.3-2-1.3-3.2c0-1.4,0.7-2.6,1.9-3.3c1.5-0.9,3.2-1.3,4.9-1.3c0.8,0,1.6,0.1,2.3,0.3v-1.2
				c0-2.6-1.1-3.9-3.3-3.9c-1.1,0-2.1,0.6-2.6,1.6c-0.5,1-0.9,1.5-1.4,1.5c-0.3,0-0.6-0.1-0.9-0.3c-0.2-0.2-0.4-0.4-0.4-0.7
				c0-0.4,0.2-0.7,0.5-1c0.3-0.4,0.8-0.7,1.2-1c1.2-0.7,2.6-1.1,4-1.1c2.5,0,4.2,0.8,4.9,2.5c0.3,0.7,0.4,1.4,0.4,2.2v6.1
				c0,0.5,0,1,0.2,1.5c0.1,0.2,0.4,0.3,0.6,0.3c0.2,0,0.5,0,0.7-0.1C2720,1832.8,2720.2,1832.8,2720.4,1832.8z M2715.9,1827.9
				c-0.9-0.4-1.8-0.7-2.8-0.6c-1,0-1.9,0.2-2.7,0.8c-0.7,0.5-1,1.4-1,2.3c0,0.9,0.2,1.7,0.8,2.4c0.5,0.6,1.2,1,2,0.9
				c1.5,0.1,2.9-0.5,3.8-1.7c0-0.3,0-0.6,0-0.9L2715.9,1827.9z"/>
			<path id="Path_398" class="st0" d="M2722.8,1835.1c-0.7,0-1-0.2-1-0.6c0-0.3,0.2-0.4,0.6-0.4l0.8,0.1c0.2,0,0.4,0,0.6-0.1
				c0.2-0.1,0.3-0.3,0.4-0.6c0.2-1.1,0.3-2.3,0.2-3.5v-4.6c0-0.7,0-1.3-0.2-1.9c-0.1-0.2-0.3-0.4-0.5-0.5c-0.3-0.1-0.6-0.2-0.9-0.2
				c-0.4-0.1-0.6-0.2-0.6-0.5c0-0.2,0.3-0.4,0.8-0.5c0.9-0.1,1.8-0.4,2.6-0.8c0.4-0.3,0.8-0.4,1.2-0.5c0.2,0,0.3,0.1,0.3,0.3
				c0,0,0,0.1,0,0.1c0,0.1,0,0.2-0.1,0.4c-0.2,0.8-0.4,1.6-0.3,2.4c0.5-0.9,1.3-1.7,2.2-2.3c0.8-0.5,1.7-0.8,2.6-0.8
				c0.7,0,1.5,0.1,2.2,0.3c0.6,0.2,1.1,0.5,1.5,1c0.9,1.1,1.4,2.6,1.3,4v4.2c-0.1,1.1,0,2.2,0.2,3.3c0.1,0.3,0.2,0.5,0.4,0.7
				c0.2,0.1,0.4,0.1,0.6,0.1l0.8-0.1c0.4,0,0.6,0.1,0.6,0.4c0,0.4-0.3,0.6-1,0.6c-0.4,0-0.8,0-1.3-0.1c-0.5-0.1-0.9-0.1-1.4-0.1
				c-0.5,0-1,0-1.4,0.1c-0.4,0.1-0.9,0.1-1.3,0.1c-0.7,0-1-0.2-1-0.6c0-0.3,0.2-0.4,0.6-0.4l0.8,0.1c0.2,0,0.4,0,0.6-0.1
				c0.2-0.1,0.3-0.3,0.4-0.6c0.2-1.1,0.3-2.3,0.2-3.5v-3.5c0-2.9-1.1-4.4-3.2-4.4c-1.5,0-2.8,0.8-3.5,2c-0.3,0.6-0.6,1.2-0.7,1.8v4
				c0,1.1,0,2.2,0.2,3.3c0,0.3,0.2,0.5,0.4,0.7c0.2,0.1,0.4,0.1,0.6,0.1l0.8-0.1c0.4,0,0.6,0.1,0.6,0.4c0,0.4-0.3,0.6-1,0.6
				c-0.4,0-0.8,0-1.2-0.1c-0.5-0.1-1-0.1-1.5-0.1c-0.5,0-1,0-1.5,0.1C2723.7,1835,2723.3,1835.1,2722.8,1835.1z"/>
			<path id="Path_399" class="st0" d="M2749.1,1821.9c0,0.3-0.2,0.4-0.5,0.4l-4.3,0v8.5c0,1.6,0.4,2.5,1.1,2.8
				c0.5,0.2,1.1,0.2,1.7,0c0.2-0.1,0.5-0.2,0.7-0.3c0.2-0.1,0.4-0.2,0.5-0.3c0.1-0.1,0.3-0.2,0.4-0.2c0.1,0,0.3,0.1,0.3,0.2
				c0.1,0.1,0.1,0.3,0.2,0.4c0,0.4-0.5,0.8-1.4,1.3c-0.8,0.4-1.7,0.6-2.6,0.6c-1,0-1.9-0.4-2.5-1.1c-0.6-0.9-1-2-0.9-3.1v-8.7h-0.9
				c-0.7,0-1.1-0.2-1.1-0.6c0-0.3,0.2-0.5,0.6-0.6c0.4-0.1,0.7-0.3,1.1-0.5c0.3-0.3,0.5-0.6,0.7-0.9c0.2-0.3,0.3-0.7,0.5-1
				c0.1-0.4,0.2-0.7,0.3-1c0.2-0.7,0.5-1,0.8-1c0.3,0,0.5,0.3,0.5,0.9v3.5l4.3-0.1c0.2,0,0.4,0.3,0.5,0.8
				C2749.1,1821.8,2749.1,1821.8,2749.1,1821.9z"/>
			<path id="Path_400" class="st0" d="M2751.8,1835.1c-0.7,0-1-0.2-1-0.6c0-0.3,0.2-0.4,0.6-0.4l0.8,0.1c0.2,0,0.4,0,0.6-0.1
				c0.2-0.1,0.3-0.3,0.4-0.6c0.2-1.1,0.3-2.3,0.2-3.5v-4.6c0-0.6,0-1.3-0.2-1.9c-0.1-0.2-0.3-0.4-0.5-0.6c-0.3-0.1-0.6-0.2-0.9-0.2
				c-0.4-0.1-0.6-0.2-0.6-0.5c0-0.2,0.3-0.4,0.8-0.5c0.9-0.1,1.7-0.4,2.5-0.7c0.4-0.3,0.8-0.4,1.3-0.5c0.2,0,0.3,0.1,0.4,0.3
				c0,0,0,0.1,0,0.1c0,0.1,0,0.2-0.1,0.4c-0.3,1.4-0.4,2.8-0.4,4.2v4.7c-0.1,1.1,0,2.2,0.2,3.3c0.1,0.3,0.2,0.5,0.4,0.7
				c0.2,0.1,0.4,0.1,0.6,0.1l0.8-0.1c0.4,0,0.6,0.1,0.6,0.4c0,0.4-0.3,0.6-1,0.6c-0.4,0-0.8,0-1.2-0.1c-0.5-0.1-1-0.1-1.4-0.1
				c-0.5,0-1,0-1.5,0.1C2752.7,1835,2752.2,1835.1,2751.8,1835.1z M2756,1815.9c0,0.4-0.1,0.8-0.4,1.1c-0.3,0.3-0.7,0.5-1.2,0.5
				c-0.4,0-0.8-0.1-1.1-0.4c-0.3-0.3-0.4-0.6-0.4-0.9c0-0.3,0-0.5,0.1-0.8c0.1-0.2,0.2-0.3,0.4-0.5c0.3-0.3,0.7-0.4,1.2-0.4
				c0.8,0,1.5,0.6,1.5,1.4l0,0L2756,1815.9L2756,1815.9z"/>
			<path id="Path_401" class="st0" d="M2760,1827.8c0-1,0.2-2.1,0.6-3c0.4-0.9,0.9-1.7,1.6-2.4c1.5-1.4,3.4-2.1,5.4-2
				c1.2,0,2.3,0.3,3.3,0.9c0.8,0.4,1.4,1.2,1.5,2.1c0,0.4-0.3,0.7-0.9,0.9c-0.1,0-0.3,0-0.4,0c-0.5,0-0.8-0.3-1.1-1
				c-0.5-1.2-1.7-1.9-3-1.8c-1.2,0-2.3,0.6-3.1,1.5c-0.9,1.2-1.4,2.7-1.3,4.2c-0.1,1.7,0.4,3.3,1.4,4.7c0.9,1.2,2.4,1.9,3.9,1.9
				c1.1,0,2.2-0.5,2.9-1.3c0.4-0.4,0.6-0.5,0.8-0.6c0.3,0,0.5,0.1,0.6,0.4c0,0,0,0.1,0,0.1c0,0.4-0.4,0.8-1.1,1.3
				c-1.3,0.9-2.8,1.4-4.3,1.3c-1.9,0.1-3.7-0.7-5-2.1C2760.5,1831.6,2759.9,1829.8,2760,1827.8z"/>
			<path id="Path_402" class="st0" d="M2789.5,1815.1l-0.7-0.1c-0.6,0-1.1,0.4-1.3,1c-0.2,1-0.3,2.1-0.3,3.1v7.5c0,1,0.1,2.1,0.3,3
				c0.2,0.6,0.5,1.2,0.9,1.7c1.1,1.5,2.9,2.4,4.7,2.4c1.1,0,2.1-0.1,3.1-0.5c0.8-0.3,1.5-0.7,2-1.4c0.9-1.1,1.4-2.9,1.4-5.4l0-7.5
				c0-1,0-2-0.2-2.9c-0.1-0.4-0.3-0.7-0.5-0.9c-0.2-0.2-0.5-0.3-0.8-0.3l-0.7,0.1c-0.4,0-0.6-0.1-0.5-0.4c0-0.4,0.3-0.6,0.8-0.6
				c0.5,0,1,0,1.5,0.1c0.4,0.1,0.9,0.1,1.3,0.1l2.5-0.2c0.7,0,1,0.2,1,0.6c0,0.3-0.2,0.4-0.6,0.4l-0.7-0.1c-0.6,0-1.1,0.4-1.2,1
				c-0.2,1-0.3,2.1-0.3,3.1l0,8.2c0.1,2.1-0.7,4.1-2.2,5.6c-1.6,1.5-3.7,2.3-5.8,2.2c-2.3,0.1-4.5-0.7-6.2-2.2
				c-1.6-1.7-2.5-4-2.3-6.3v-7.5c0-1,0-2-0.2-2.9c-0.1-0.4-0.3-0.7-0.5-1c-0.2-0.2-0.5-0.3-0.8-0.3l-0.7,0.1c-0.4,0-0.6-0.1-0.6-0.4
				c0-0.4,0.3-0.6,0.8-0.6c0.6,0,1.1,0,1.7,0.1c0.6,0.1,1.1,0.1,1.7,0.1c0.6,0,1.2,0,1.7-0.1c0.6-0.1,1.1-0.1,1.7-0.1
				c0.6,0,0.8,0.2,0.8,0.6C2790,1815,2789.8,1815.1,2789.5,1815.1z"/>
			<path id="Path_403" class="st0" d="M2806.1,1835.1c-0.7,0-1-0.2-1-0.6c0-0.3,0.2-0.4,0.6-0.4l0.8,0.1c0.2,0,0.4,0,0.6-0.1
				c0.2-0.1,0.3-0.3,0.4-0.6c0.2-1.1,0.3-2.3,0.2-3.5v-4.6c0.1-0.7,0-1.3-0.2-1.9c-0.1-0.2-0.3-0.4-0.5-0.5
				c-0.3-0.1-0.6-0.2-0.9-0.2c-0.4-0.1-0.6-0.2-0.6-0.5c0-0.2,0.3-0.4,0.8-0.5c0.9-0.1,1.8-0.4,2.6-0.8c0.4-0.3,0.8-0.4,1.2-0.5
				c0.2,0,0.3,0.1,0.3,0.3c0,0,0,0.1,0,0.1c0,0.1,0,0.2-0.1,0.4c-0.2,0.8-0.3,1.6-0.3,2.4c0.5-0.9,1.3-1.7,2.2-2.3
				c0.8-0.5,1.7-0.8,2.6-0.8c0.7,0,1.5,0.1,2.2,0.3c0.6,0.2,1.1,0.5,1.5,1c0.9,1.1,1.4,2.6,1.3,4v4.2c0,1.1,0,2.2,0.2,3.3
				c0.1,0.3,0.2,0.5,0.4,0.7c0.2,0.1,0.4,0.1,0.6,0.1l0.8-0.1c0.4,0,0.6,0.1,0.6,0.4c0,0.4-0.3,0.6-1,0.6c-0.4,0-0.8,0-1.3-0.1
				c-0.5-0.1-0.9-0.1-1.4-0.1c-0.5,0-1,0-1.4,0.1c-0.4,0.1-0.9,0.1-1.3,0.1c-0.7,0-1-0.2-1-0.6c0-0.3,0.2-0.4,0.6-0.4l0.8,0.1
				c0.2,0,0.4,0,0.6-0.1c0.2-0.1,0.3-0.3,0.4-0.6c0.2-1.1,0.3-2.3,0.2-3.5v-3.5c0-2.9-1.1-4.4-3.2-4.4c-1.5,0-2.8,0.8-3.5,2
				c-0.3,0.6-0.6,1.2-0.7,1.8v4c-0.1,1.1,0,2.2,0.2,3.3c0,0.3,0.2,0.5,0.4,0.7c0.2,0.1,0.4,0.1,0.6,0.1l0.8-0.1
				c0.4,0,0.6,0.1,0.6,0.4c0,0.4-0.3,0.6-1,0.6c-0.4,0-0.8,0-1.2-0.1c-0.5-0.1-1-0.1-1.5-0.1c-0.5,0-1,0-1.5,0.1
				C2806.9,1835,2806.5,1835.1,2806.1,1835.1z"/>
			<path id="Path_404" class="st0" d="M2824.6,1835.1c-0.7,0-1-0.2-1-0.6c0-0.3,0.2-0.4,0.6-0.4l0.8,0.1c0.2,0,0.4,0,0.6-0.1
				c0.2-0.1,0.3-0.3,0.4-0.6c0.2-1.1,0.3-2.3,0.2-3.5v-4.6c0-0.6,0-1.3-0.2-1.9c-0.1-0.2-0.3-0.4-0.5-0.6c-0.3-0.1-0.6-0.2-0.9-0.2
				c-0.4-0.1-0.6-0.2-0.6-0.5c0-0.2,0.3-0.4,0.8-0.5c0.9-0.1,1.7-0.4,2.5-0.7c0.4-0.3,0.8-0.4,1.3-0.5c0.2,0,0.3,0.1,0.4,0.3
				c0,0,0,0.1,0,0.1c0,0.1,0,0.2-0.1,0.4c-0.3,1.4-0.4,2.8-0.4,4.2v4.7c-0.1,1.1,0,2.2,0.2,3.3c0.1,0.3,0.2,0.5,0.4,0.7
				c0.2,0.1,0.4,0.1,0.6,0.1l0.8-0.1c0.4,0,0.6,0.1,0.6,0.4c0,0.4-0.3,0.6-1,0.6c-0.4,0-0.8,0-1.2-0.1c-0.5-0.1-1-0.1-1.4-0.1
				c-0.5,0-1,0-1.5,0.1C2825.4,1835,2825,1835.1,2824.6,1835.1z M2828.8,1815.9c0,0.4-0.1,0.8-0.4,1.1c-0.3,0.3-0.7,0.5-1.2,0.5
				c-0.4,0-0.8-0.1-1.1-0.4c-0.3-0.3-0.4-0.6-0.4-0.9c0-0.3,0-0.5,0.1-0.8c0.1-0.2,0.2-0.3,0.4-0.5c0.3-0.3,0.7-0.4,1.2-0.4
				c0.8,0,1.5,0.6,1.5,1.4L2828.8,1815.9L2828.8,1815.9z"/>
			<path id="Path_405" class="st0" d="M2846.7,1820.5c0.4,0,0.6,0.1,0.6,0.4c0,0.2-0.2,0.4-0.6,0.5c-0.3,0.1-0.6,0.2-0.9,0.4
				c-0.2,0.1-0.4,0.3-0.6,0.5c-0.5,0.7-0.9,1.5-1.2,2.3l-4.6,10.2c-0.1,0.3-0.3,0.4-0.4,0.4c-0.2,0-0.4-0.1-0.5-0.4l-5.1-11.3
				c-0.2-0.4-0.4-0.9-0.7-1.3c-0.3-0.3-0.7-0.5-1.1-0.6c-0.4-0.1-0.7-0.3-0.7-0.6c0-0.1,0.1-0.2,0.2-0.3c0.1-0.1,0.3-0.1,0.5-0.1
				l2.4,0.2c0.5,0,1,0,1.5-0.1c0.5-0.1,0.9-0.1,1.4-0.1c0.7,0,1.1,0.1,1.1,0.4c0,0.3-0.4,0.5-1.3,0.5c-0.6,0-0.9,0.2-0.9,0.6
				c0,0.4,0.1,0.8,0.3,1.2l3.6,8l3.2-7.3c0.3-0.6,0.5-1.2,0.6-1.8c0-0.3-0.1-0.5-0.2-0.6c-0.3-0.1-0.5-0.2-0.8-0.2
				c-0.3,0-0.6-0.1-0.9-0.2c-0.2,0-0.3-0.2-0.3-0.4c0-0.3,0.3-0.4,1-0.4l2.6,0.2L2846.7,1820.5z"/>
			<path id="Path_406" class="st0" d="M2849.8,1833.1c-0.6-0.7-1.1-1.5-1.4-2.3c-0.3-1-0.5-2-0.5-3c0-1,0.2-2.1,0.6-3
				c1.1-2.7,3.7-4.4,6.6-4.4c1.5-0.1,3,0.5,4,1.7c1,1.1,1.5,2.5,1.5,3.9c0,0.4,0,0.7-0.2,1c-0.1,0.2-0.3,0.3-0.5,0.3
				c-0.3,0-0.6,0.1-0.8,0.1c-0.4,0-0.8,0.1-1.3,0.1s-1.1,0.1-1.7,0.1c-0.6,0-1.3,0.1-1.9,0.1c-1.5,0.1-2.7,0.2-3.6,0.3
				c0.2,2.7,1.3,4.5,3.1,5.3c0.6,0.3,1.3,0.4,2,0.4c1.3,0.1,2.5-0.4,3.5-1.3c0.4-0.4,0.6-0.5,0.8-0.5c0.4,0,0.6,0.2,0.6,0.7
				c0,0.3-0.2,0.6-0.5,0.8c-0.4,0.4-0.8,0.7-1.3,1c-1.1,0.6-2.3,0.9-3.5,0.9c-1.1,0-2.2-0.1-3.3-0.6
				C2851.1,1834.3,2850.4,1833.8,2849.8,1833.1z M2850.5,1826.9c4.8-0.2,7.3-0.5,7.5-0.8c0.1-0.3,0.2-0.6,0.1-0.9
				c0-0.5-0.1-1-0.3-1.5c-0.2-0.5-0.4-0.9-0.8-1.2c-0.7-0.7-1.6-1-2.5-1c-1.1,0-2.2,0.5-2.9,1.4
				C2850.9,1824,2850.5,1825.4,2850.5,1826.9L2850.5,1826.9z"/>
			<path id="Path_407" class="st0" d="M2863.5,1835.1c-0.7,0-1-0.2-1-0.6c0-0.3,0.2-0.4,0.6-0.4l0.8,0.1c0.2,0,0.4,0,0.6-0.1
				c0.2-0.1,0.3-0.3,0.4-0.6c0.2-1.1,0.3-2.3,0.2-3.5v-4.6c0-0.7,0-1.3-0.2-1.9c-0.1-0.2-0.3-0.4-0.5-0.5c-0.3-0.1-0.6-0.2-0.9-0.2
				c-0.4-0.1-0.6-0.2-0.6-0.5c0-0.2,0.3-0.4,0.8-0.5c0.9-0.1,1.7-0.4,2.5-0.8c0.4-0.3,0.8-0.4,1.3-0.5c0.2,0,0.3,0.1,0.3,0.3
				c0,0,0,0.1,0,0.1c0,0.1,0,0.2-0.1,0.4c0,0.1-0.1,0.3-0.1,0.4c-0.1,0.6-0.2,1.3-0.2,2c0.7-1.3,1.8-2.3,3.2-2.8
				c0.4-0.1,0.8-0.2,1.2-0.2c0.5,0,0.9,0.2,1.2,0.5c0.3,0.3,0.5,0.6,0.5,1c0,0.3,0,0.6-0.1,0.8c-0.1,0.2-0.2,0.3-0.3,0.4
				c-0.2,0.2-0.4,0.4-0.7,0.4c-0.2,0-0.3,0-0.5-0.2c-0.2-0.2-0.3-0.4-0.4-0.6c-0.3-0.5-0.5-0.8-0.9-0.8c-0.3,0-0.6,0.1-0.9,0.2
				c-0.3,0.2-0.6,0.4-0.9,0.6c-0.7,0.7-1.2,1.5-1.6,2.4v4.6c-0.1,1.1,0,2.3,0.2,3.4c0.1,0.3,0.2,0.5,0.4,0.6
				c0.2,0.1,0.4,0.1,0.6,0.1l1.4-0.1c0.2,0,0.3,0,0.5,0.1c0.1,0.1,0.2,0.2,0.2,0.4c0,0.4-0.4,0.6-1.1,0.6l-3.2-0.2
				c-0.5,0-1,0-1.5,0.1C2864.4,1835,2863.9,1835.1,2863.5,1835.1z"/>
			<path id="Path_408" class="st0" d="M2875.5,1832.9c-0.2-0.3-0.4-0.6-0.4-0.9c0-0.2,0-0.4,0.1-0.5c0.1-0.1,0.2-0.2,0.3-0.3
				c0.2-0.2,0.5-0.4,0.8-0.4c0.2,0,0.4,0.1,0.6,0.2c0.2,0.2,0.3,0.4,0.4,0.7c0.1,0.3,0.3,0.7,0.5,1c0.2,0.3,0.5,0.6,0.8,0.8
				c0.7,0.5,1.6,0.8,2.4,0.7c0.8,0,1.5-0.2,2.2-0.6c0.6-0.3,0.9-0.9,0.9-1.6c0-0.7-0.3-1.3-0.8-1.7c-0.8-0.6-1.7-1.1-2.7-1.5
				c-0.9-0.3-1.7-0.7-2.5-1.2c-0.5-0.3-0.9-0.6-1.2-1c-0.6-0.7-0.9-1.5-0.9-2.4c0-1,0.5-2,1.4-2.6c2-1.3,4.6-1.4,6.7-0.3
				c0.7,0.5,1.1,0.9,1.1,1.4c0,0.3-0.2,0.5-0.4,0.7c-0.2,0.2-0.5,0.3-0.8,0.3c-0.2,0-0.4,0-0.6-0.1c-0.2-0.2-0.4-0.5-0.6-0.8
				c-0.5-0.8-1.4-1.3-2.4-1.2c-0.9-0.1-1.8,0.3-2.4,1.1c-0.1,0.2-0.2,0.4-0.2,0.7c0,0.2,0,0.5,0.1,0.7c0.1,0.3,0.3,0.5,0.5,0.7
				c0.9,0.7,2,1.2,3.1,1.6c2.9,1.2,4.4,2.8,4.4,4.7c0,1.2-0.6,2.4-1.5,3.1c-2.4,1.6-5.5,1.6-7.8,0
				C2876.2,1833.7,2875.8,1833.3,2875.5,1832.9z"/>
			<path id="Path_409" class="st0" d="M2889.3,1835.1c-0.7,0-1-0.2-1-0.6c0-0.3,0.2-0.4,0.6-0.4l0.8,0.1c0.2,0,0.4,0,0.6-0.1
				c0.2-0.1,0.3-0.3,0.4-0.6c0.2-1.1,0.3-2.3,0.2-3.5v-4.6c0-0.6,0-1.3-0.2-1.9c-0.1-0.2-0.3-0.4-0.5-0.6c-0.3-0.1-0.6-0.2-0.9-0.2
				c-0.4-0.1-0.6-0.2-0.6-0.5c0-0.2,0.3-0.4,0.8-0.5c0.9-0.1,1.7-0.4,2.5-0.7c0.4-0.3,0.8-0.4,1.3-0.5c0.2,0,0.3,0.1,0.4,0.3
				c0,0,0,0.1,0,0.1c0,0.1,0,0.2-0.1,0.4c-0.3,1.4-0.4,2.8-0.4,4.2v4.7c-0.1,1.1,0,2.2,0.2,3.3c0.1,0.3,0.2,0.5,0.4,0.7
				c0.2,0.1,0.4,0.1,0.6,0.1l0.8-0.1c0.4,0,0.6,0.1,0.6,0.4c0,0.4-0.3,0.6-1,0.6c-0.4,0-0.8,0-1.2-0.1c-0.5-0.1-1-0.1-1.4-0.1
				c-0.5,0-1,0-1.5,0.1C2890.1,1835,2889.7,1835.1,2889.3,1835.1z M2893.5,1815.9c0,0.4-0.1,0.8-0.4,1.1c-0.3,0.3-0.7,0.5-1.2,0.5
				c-0.4,0-0.8-0.1-1.1-0.4c-0.3-0.3-0.4-0.6-0.4-0.9c0-0.3,0-0.5,0.1-0.8c0.1-0.2,0.2-0.3,0.4-0.5c0.3-0.3,0.7-0.4,1.2-0.4
				c0.8,0,1.5,0.6,1.5,1.4L2893.5,1815.9L2893.5,1815.9z"/>
			<path id="Path_410" class="st0" d="M2906,1821.9c0,0.3-0.2,0.4-0.5,0.4l-4.3,0v8.5c0,1.6,0.4,2.5,1.1,2.8c0.5,0.2,1.1,0.2,1.7,0
				c0.2-0.1,0.5-0.2,0.7-0.3c0.2-0.1,0.4-0.2,0.5-0.3c0.1-0.1,0.3-0.2,0.4-0.2c0.1,0,0.3,0.1,0.3,0.2c0.1,0.1,0.1,0.3,0.2,0.4
				c0,0.4-0.5,0.8-1.4,1.3c-0.8,0.4-1.7,0.6-2.6,0.6c-1,0-1.9-0.4-2.5-1.1c-0.6-0.9-1-2-0.9-3.1v-8.7h-0.9c-0.7,0-1.1-0.2-1.1-0.6
				c0-0.3,0.2-0.5,0.6-0.6c0.4-0.1,0.7-0.3,1.1-0.5c0.3-0.3,0.5-0.6,0.7-0.9c0.2-0.3,0.3-0.7,0.5-1l0.3-1c0.2-0.7,0.5-1,0.8-1
				c0.3,0,0.5,0.3,0.5,0.9v3.5l4.3-0.1c0.2,0,0.4,0.3,0.5,0.8C2906,1821.8,2906,1821.8,2906,1821.9z"/>
			<path id="Path_411" class="st0" d="M2921.3,1820.5c0.4,0,0.6,0.1,0.6,0.4c0,0.2-0.2,0.4-0.6,0.5c-0.3,0.1-0.6,0.2-0.9,0.4
				c-0.2,0.1-0.4,0.3-0.6,0.5c-0.5,0.7-0.9,1.5-1.1,2.3l-2.3,6.2c-2,5.4-3.4,8.6-4.3,9.7c-0.7,1-1.9,1.6-3.1,1.7
				c-0.6,0-1.2-0.1-1.8-0.3c-0.6-0.4-0.9-0.8-0.9-1.2c0-0.3,0.1-0.5,0.3-0.7c0.2-0.3,0.6-0.4,0.9-0.5c0.3,0,0.5,0,0.7,0.1
				c0.2,0.1,0.4,0.2,0.6,0.3l0.5,0.3c0.1,0.1,0.3,0.1,0.4,0.1c0.1,0,0.3,0,0.4,0c0.2,0,0.3-0.1,0.5-0.2c0.2-0.2,0.4-0.3,0.6-0.5
				c0.3-0.3,0.5-0.7,0.7-1c0.7-1.4,1.3-2.8,1.8-4.2c-0.9-1-1.6-2.2-2.1-3.5l-3.4-7.5c-0.2-0.4-0.4-0.9-0.7-1.3
				c-0.3-0.3-0.6-0.6-1.1-0.7c-0.4-0.1-0.7-0.3-0.7-0.6c0-0.1,0.1-0.2,0.2-0.3c0.1-0.1,0.3-0.1,0.5-0.1l2.4,0.2c0.5,0,0.9,0,1.4-0.1
				c0.4-0.1,0.9-0.1,1.3-0.1c0.7,0,1,0.1,1,0.4s-0.4,0.5-1.2,0.5c-0.5,0-0.8,0.2-0.9,0.4c0,0.1,0,0.2,0,0.2c0.1,0.4,0.3,0.8,0.5,1.2
				l3.7,8.4c0,0,0,0,0,0s0,0,0-0.1l2.6-7.7c0.2-0.5,0.3-0.8,0.4-1.1c0.1-0.2,0.1-0.5,0.2-0.8c0-0.2-0.1-0.3-0.2-0.4
				c-0.3-0.1-0.5-0.2-0.8-0.2c-0.8-0.1-1.1-0.2-1.1-0.5c0-0.3,0.3-0.4,1-0.4l2.6,0.2L2921.3,1820.5z"/>
		</g>
		<g id="Group_134">
			<path id="Path_412" class="st0" d="M2553.6,1842.5l0.6-0.1c0.3,0,0.4,0.2,0.5,0.7c0,0.4,0.1,0.8,0.1,1.1c0.1,0.3,0.1,0.6,0.2,0.8
				s0.1,0.4,0.1,0.6c0,0.1,0,0.3,0.1,0.4c0,0.1-0.1,0.2-0.2,0.3c-0.1,0.1-0.2,0.1-0.4,0.1c-0.2,0-0.5-0.2-0.7-0.7
				c-0.3-0.7-0.6-1.3-1.1-1.8c-0.8-0.6-1.9-1-2.9-0.9c-1.8,0-3,0.5-3.6,1.6c-0.2,0.4-0.3,0.8-0.3,1.3c0,0.5,0.1,1,0.4,1.4
				c0.3,0.5,0.7,0.9,1.1,1.3c0.6,0.5,1.2,1,1.9,1.4c0.8,0.5,1.6,1.1,2.4,1.7c0.7,0.5,1.4,1,2,1.6c0.4,0.4,0.8,0.9,1.2,1.4
				c0.5,0.8,0.8,1.7,0.9,2.6c0,0.8-0.1,1.5-0.4,2.3c-0.2,0.7-0.7,1.3-1.2,1.7c-1.5,1.2-3.4,1.8-5.3,1.7c-1.3,0-2.7-0.3-3.9-0.8
				c-0.2-0.1-0.5-0.2-0.6-0.4c-0.1-0.3-0.2-0.6-0.2-1c-0.1-0.4-0.1-0.9-0.3-1.3c-0.1-0.4-0.2-0.7-0.3-1l-0.2-0.8
				c-0.1-0.2-0.1-0.4-0.1-0.6c0-0.4,0.1-0.5,0.4-0.5c0.4,0,0.6,0.3,0.8,0.8c0.2,0.7,0.4,1.3,0.8,1.9c0.7,1,1.8,1.8,3,2.2
				c0.4,0.1,0.9,0.2,1.3,0.2c0.6,0,1.1-0.1,1.7-0.3c0.5-0.1,0.9-0.4,1.3-0.7c0.6-0.5,1-1.2,1-2c0-0.8-0.3-1.5-0.8-2.1
				c-0.5-0.6-1.1-1.2-1.8-1.7c-0.7-0.5-1.2-0.8-1.6-1c-0.3-0.2-0.7-0.4-1-0.6c-2.6-1.7-4.1-3.4-4.5-5.1c-0.1-0.5-0.2-1-0.2-1.5
				c0-0.6,0.2-1.2,0.4-1.8c0.3-0.6,0.7-1.2,1.2-1.6c1.3-1,2.9-1.6,4.5-1.5c0.7,0,1.4,0.1,2,0.3
				C2552.7,1842.3,2553.2,1842.4,2553.6,1842.5z"/>
			<path id="Path_413" class="st0" d="M2558.6,1855.6c0-1,0.2-2,0.6-3c0.4-0.9,0.9-1.7,1.6-2.3c1.4-1.4,3.4-2.1,5.4-2
				c1.2,0,2.3,0.3,3.3,0.9c0.8,0.4,1.4,1.2,1.5,2.1c0,0.4-0.3,0.7-0.9,0.9c-0.1,0-0.3,0-0.4,0c-0.5,0-0.8-0.3-1.1-1
				c-0.5-1.2-1.7-1.9-2.9-1.8c-1.2,0-2.3,0.5-3.1,1.5c-0.9,1.2-1.4,2.7-1.3,4.2c-0.1,1.7,0.4,3.3,1.4,4.7c0.9,1.2,2.3,1.9,3.9,1.9
				c1.1,0,2.2-0.5,2.9-1.3c0.4-0.4,0.6-0.5,0.8-0.5c0.3,0,0.5,0.2,0.6,0.4c0,0,0,0.1,0,0.1c0,0.4-0.4,0.8-1.1,1.3
				c-1.3,0.9-2.8,1.4-4.3,1.3c-1.9,0.1-3.7-0.7-5-2.1C2559.2,1859.5,2558.5,1857.6,2558.6,1855.6z"/>
			<path id="Path_414" class="st0" d="M2573.8,1862.8c-0.7,0-1-0.2-1-0.6c0-0.3,0.2-0.4,0.6-0.4l0.8,0.1c0.2,0,0.4,0,0.6-0.1
				c0.2-0.1,0.3-0.3,0.3-0.6c0.2-1.1,0.3-2.3,0.2-3.4v-11.9c0-0.6,0-1.3-0.2-1.9c-0.1-0.2-0.3-0.4-0.5-0.6c-0.3-0.1-0.5-0.2-0.8-0.2
				c-0.4-0.1-0.6-0.2-0.6-0.5c0-0.2,0.3-0.4,0.8-0.5c0.9-0.1,1.7-0.4,2.5-0.8c0.4-0.3,0.8-0.4,1.3-0.5c0.2,0,0.3,0.1,0.3,0.3
				c0,0,0,0,0,0l0,0c0,0,0,0.1,0,0.1c0,0.1,0,0.2-0.1,0.3c-0.2,0.7-0.3,1.4-0.3,2.1c0,0.8,0,1.5,0,2.1v5.9c0.7-1.5,2-2.6,3.6-3.1
				c0.5-0.1,1-0.2,1.5-0.2c1.3-0.1,2.5,0.4,3.4,1.3c0.9,1.1,1.3,2.6,1.2,4v4.2c0,1.1,0,2.2,0.2,3.3c0,0.3,0.2,0.5,0.4,0.7
				c0.2,0.1,0.4,0.1,0.6,0.1l0.8-0.1c0.4,0,0.6,0.1,0.6,0.4c0,0.4-0.3,0.6-1,0.6c-0.4,0-0.8,0-1.2-0.1c-0.5-0.1-0.9-0.1-1.4-0.1
				c-0.5,0-1,0-1.4,0.1c-0.4,0.1-0.8,0.1-1.3,0.1c-0.7,0-1-0.2-1-0.6c0-0.3,0.2-0.4,0.6-0.4l0.8,0.1c0.2,0,0.4,0,0.6-0.1
				c0.2-0.1,0.3-0.3,0.4-0.6c0.2-1.1,0.3-2.3,0.2-3.4v-3.5c0-2.9-1.1-4.3-3.2-4.3c-1.6,0-2.9,1-3.5,2.4c-0.3,0.6-0.5,1.3-0.6,2v3.4
				c0,1.1,0,2.2,0.2,3.3c0,0.3,0.2,0.5,0.4,0.7c0.2,0.1,0.4,0.1,0.6,0.1l0.8-0.1c0.4,0,0.6,0.1,0.6,0.4c0,0.4-0.3,0.6-1,0.6
				c-0.4,0-0.8,0-1.2-0.1c-0.5-0.1-0.9-0.1-1.4-0.1c-0.5,0-1,0-1.5,0.1C2574.6,1862.8,2574.2,1862.8,2573.8,1862.8z"/>
			<path id="Path_415" class="st0" d="M2591.4,1855.9c0-1,0.2-1.9,0.5-2.9c0.3-0.9,0.9-1.7,1.5-2.4c2.9-3,7.7-3.1,10.7-0.2
				c1.2,1.4,1.8,3.2,1.7,5c0.1,4.1-3.2,7.6-7.3,7.7c-2,0-4-0.7-5.4-2.2C2591.9,1859.5,2591.3,1857.7,2591.4,1855.9z M2594,1855.2
				c0,0.9,0.1,1.9,0.4,2.8c0.2,0.8,0.6,1.5,1.1,2.1c0.8,1.1,2.2,1.8,3.6,1.7c1.2,0,2.4-0.5,3.1-1.5c0.9-1.2,1.3-2.6,1.2-4.1
				c0.1-1.8-0.4-3.7-1.5-5.2c-0.9-1.1-2.2-1.7-3.6-1.7c-1.2,0-2.4,0.5-3.1,1.5C2594.3,1852.2,2593.9,1853.7,2594,1855.2L2594,1855.2
				z"/>
			<path id="Path_416" class="st0" d="M2608.1,1855.9c0-1,0.2-1.9,0.5-2.9c0.3-0.9,0.8-1.7,1.5-2.4c2.9-3,7.7-3.1,10.7-0.2
				c1.2,1.4,1.8,3.2,1.7,5c0.1,4.1-3.2,7.6-7.3,7.7c-2,0-4-0.7-5.4-2.2C2608.6,1859.5,2608,1857.7,2608.1,1855.9z M2610.7,1855.2
				c0,0.9,0.1,1.9,0.4,2.8c0.2,0.8,0.6,1.5,1.1,2.1c0.8,1.1,2.2,1.8,3.6,1.7c1.2,0,2.4-0.5,3.1-1.5c0.9-1.2,1.3-2.6,1.2-4.1
				c0.1-1.8-0.4-3.7-1.5-5.2c-0.9-1.1-2.2-1.7-3.6-1.7c-1.2,0-2.4,0.5-3.1,1.5C2611,1852.2,2610.6,1853.7,2610.7,1855.2
				L2610.7,1855.2z"/>
			<path id="Path_417" class="st0" d="M2625.5,1862.8c-0.7,0-1-0.2-1-0.6c0-0.3,0.2-0.4,0.6-0.4l0.8,0.1c0.2,0,0.4,0,0.6-0.1
				c0.2-0.1,0.3-0.3,0.4-0.6c0.2-1.1,0.3-2.3,0.2-3.4v-11.3c0-1.7-0.3-2.6-1.1-2.7c-0.5-0.1-0.8-0.2-0.8-0.5c0-0.2,0.2-0.4,0.7-0.5
				c0.4-0.1,0.9-0.2,1.3-0.4c0.4-0.1,0.7-0.3,1-0.4c0.3-0.1,0.5-0.3,0.8-0.4c0.1-0.1,0.3-0.1,0.4-0.2c0.2,0,0.3,0.1,0.4,0.3
				c0,0,0,0.1,0,0.1c0,0.1,0,0.2-0.1,0.4c-0.2,0.7-0.3,1.4-0.3,2.1c0,0.8,0,1.5,0,2.1v11.4c0,1.1,0,2.2,0.2,3.3
				c0,0.3,0.2,0.5,0.4,0.7c0.2,0.1,0.4,0.1,0.6,0.1l0.8-0.1c0.4,0,0.6,0.1,0.6,0.4c0,0.4-0.3,0.6-1,0.6c-0.4,0-0.8,0-1.2-0.1
				c-0.5-0.1-1-0.1-1.4-0.1c-0.5,0-1,0-1.5,0.1C2626.3,1862.8,2625.9,1862.8,2625.5,1862.8z"/>
			<path id="Path_418" class="st0" d="M2641.8,1855.9c0-1,0.2-1.9,0.5-2.9c0.3-0.9,0.9-1.7,1.5-2.4c2.9-3,7.7-3.1,10.7-0.2
				c1.2,1.4,1.8,3.2,1.7,5c0.1,4.1-3.2,7.6-7.3,7.7c-2,0-4-0.7-5.4-2.2C2642.3,1859.5,2641.7,1857.7,2641.8,1855.9z M2644.3,1855.2
				c0,0.9,0.1,1.9,0.4,2.8c0.2,0.8,0.6,1.5,1.1,2.1c0.8,1.1,2.2,1.8,3.6,1.7c1.2,0,2.4-0.5,3.1-1.5c0.9-1.2,1.3-2.6,1.2-4.1
				c0.1-1.8-0.4-3.7-1.5-5.2c-0.9-1.1-2.2-1.7-3.6-1.7c-1.2,0-2.4,0.5-3.1,1.5C2644.7,1852.2,2644.2,1853.7,2644.3,1855.2
				L2644.3,1855.2z"/>
			<path id="Path_419" class="st0" d="M2659.7,1862.8c-0.7,0-1-0.2-1-0.6c0-0.3,0.2-0.4,0.6-0.4l0.6,0.1c0.2,0,0.4,0,0.6-0.1
				c0.2-0.1,0.3-0.3,0.3-0.6c0.2-1.1,0.2-2.3,0.2-3.4v-7.9l-1.4,0c-0.2,0-0.3-0.1-0.3-0.3c0-0.3,0-0.5,0.2-0.7
				c0.1-0.1,0.2-0.2,0.3-0.2h1.2v0c0-4.2,0.9-6.9,2.7-7.9c0.7-0.4,1.4-0.6,2.2-0.5c0.6,0,1.1,0.1,1.7,0.2c0.4,0.2,0.6,0.3,0.8,0.4
				c0.2,0.1,0.3,0.2,0.5,0.3c0.3,0.2,0.5,0.5,0.5,0.9c0,0.3-0.1,0.5-0.3,0.7c-0.2,0.2-0.4,0.2-0.6,0.3c-0.2,0-0.3,0-0.5,0
				c-0.1,0-0.2-0.1-0.4-0.1c-0.3-0.2-0.5-0.3-0.7-0.6l-0.5-0.5c-0.1-0.1-0.2-0.2-0.3-0.2c-0.3-0.1-0.6-0.2-1-0.2
				c-0.4,0-0.7,0.1-1,0.4c-0.3,0.4-0.5,0.8-0.6,1.3c-0.3,1.8-0.4,3.6-0.3,5.4v0.3h3.2c0.3,0,0.5,0.1,0.5,0.4c0,0.3-0.1,0.5-0.2,0.7
				c-0.1,0.1-0.2,0.2-0.3,0.2l-3.2-0.1v7.9c-0.1,1.1,0,2.3,0.2,3.4c0.1,0.4,0.3,0.6,0.4,0.7c0.2,0.1,0.4,0.1,0.7,0.1l1.5-0.1
				c0.5,0,0.7,0.2,0.7,0.5s-0.4,0.5-1.1,0.5l-3.5-0.2c-0.5,0-1,0-1.4,0.1C2660.5,1862.8,2660.1,1862.8,2659.7,1862.8z"/>
			<path id="Path_420" class="st0" d="M2677.8,1862.8c-0.6,0-1-0.2-1-0.5c0-0.4,0.2-0.5,0.6-0.5c0.5,0,0.9-0.1,1.4-0.3
				c0.6-0.5,0.9-1.2,0.9-1.9c0-0.2,0-0.5,0.1-1s0.1-0.9,0.1-1.5s0.1-1.2,0.1-1.9s0.1-1.4,0.1-2.2s0.1-1.5,0.1-2.2s0.1-1.5,0.1-2.1
				c0.1-1.7,0.1-2.8,0.1-3.2c0-0.4,0-0.7-0.1-1.1c-0.1-0.2-0.1-0.4-0.3-0.6c-0.3-0.3-0.7-0.5-1.1-0.5c-0.9-0.1-1.3-0.3-1.3-0.6
				c0-0.2,0.1-0.3,0.2-0.4c0.1-0.1,0.3-0.2,0.5-0.2l2.4,0.2l1.3-0.1c0.2,0,0.5,0.1,0.6,0.3c0.2,0.3,0.4,0.6,0.5,0.9l7.4,15.2
				l0.7-1.6c0.3-0.6,0.6-1.4,0.9-2.2c0.3-0.8,0.7-1.6,1.1-2.5c0.4-0.9,0.8-1.8,1.1-2.6l1.1-2.5c0.3-0.8,0.6-1.5,0.9-2.1
				c0.3-0.6,0.5-1.1,0.7-1.5c0.2-0.4,0.3-0.7,0.4-0.8c0.1-0.2,0.2-0.3,0.4-0.5c0.2-0.1,0.4-0.2,0.7-0.2l1.4,0.1l1.8-0.1
				c0.8,0,1.1,0.2,1.1,0.6c0,0.2-0.2,0.3-0.5,0.4s-0.6,0.1-0.9,0.2c-0.2,0-0.4,0.1-0.7,0.2c-0.5,0.2-0.7,0.7-0.7,1.3l0.8,14.9
				c0.1,1.3,0.6,2,1.5,2.2c0.2,0,0.5,0.1,0.7,0.1c0.4,0,0.7,0.2,0.7,0.5c0,0.4-0.3,0.5-1,0.5c-0.2,0-0.4,0-0.7,0
				c-0.2,0-0.4,0-0.5-0.1c-0.5-0.1-1-0.1-1.5-0.1l-3.2,0.2c-0.7,0-1-0.2-1-0.6c0-0.3,0.2-0.5,0.7-0.5c0.4,0,0.7,0,1-0.1
				c0.2-0.1,0.4-0.2,0.5-0.4c0.2-0.6,0.3-1.1,0.2-1.7v-1.4c0-0.7-0.1-2.1-0.2-4.2c-0.1-2.1-0.2-3.6-0.2-4.5
				c-0.1-1.9-0.2-3.3-0.2-4.3l-7.2,16.5c-0.3,0.6-0.5,0.9-0.7,0.9c-0.1,0-0.3-0.1-0.4-0.2c-0.1-0.2-0.3-0.5-0.4-0.7l-7.4-15.2
				c-0.4,5.2-0.6,9.9-0.6,14.2c0,0.8,0.7,1.2,2,1.2c0.4,0,0.5,0.1,0.5,0.4c0,0.4-0.3,0.6-1,0.6l-2.5-0.2c-0.5,0-1,0-1.5,0.1
				C2678.5,1862.8,2678.2,1862.8,2677.8,1862.8z"/>
			<path id="Path_421" class="st0" d="M2707.9,1860.9c-0.6-0.7-1.1-1.5-1.4-2.3c-0.3-1-0.5-2-0.5-3c0-1,0.2-2,0.6-3
				c1.1-2.7,3.7-4.4,6.6-4.4c1.5-0.1,3,0.5,4,1.6c1,1.1,1.5,2.5,1.5,3.9c0,0.4,0,0.7-0.2,1c-0.1,0.2-0.3,0.3-0.5,0.3
				c-0.2,0-0.5,0.1-0.8,0.1s-0.8,0.1-1.3,0.1s-1.1,0.1-1.7,0.1s-1.3,0.1-1.9,0.1c-1.5,0.1-2.7,0.2-3.6,0.3c0.2,2.7,1.3,4.5,3.1,5.3
				c0.6,0.3,1.3,0.4,1.9,0.4c1.3,0.1,2.5-0.4,3.5-1.3c0.4-0.4,0.6-0.5,0.8-0.5c0.4,0,0.5,0.2,0.5,0.7c0,0.3-0.2,0.6-0.5,0.8
				c-0.4,0.4-0.8,0.7-1.3,1c-1.1,0.6-2.3,0.9-3.5,0.9c-1.1,0-2.2-0.2-3.3-0.6C2709.2,1862.1,2708.5,1861.6,2707.9,1860.9z
				 M2708.6,1854.7c4.8-0.2,7.3-0.5,7.5-0.8c0.1-0.3,0.2-0.6,0.1-0.9c0-1-0.4-1.9-1.1-2.7c-0.7-0.7-1.6-1-2.5-1
				c-1.1,0-2.2,0.5-2.8,1.4C2709,1851.9,2708.6,1853.3,2708.6,1854.7L2708.6,1854.7z"/>
			<path id="Path_422" class="st0" d="M2731.8,1861.3c-1.1,1.2-2.7,1.8-4.3,1.7c-1.9,0.1-3.7-0.7-4.9-2.1c-1.1-1.5-1.7-3.3-1.7-5.1
				c0-2,0.7-3.9,2-5.3c2.2-2.3,5.6-2.8,8.5-1.4v-3.2c0-0.6,0-1.3-0.2-1.9c-0.1-0.2-0.3-0.4-0.5-0.6c-0.3-0.1-0.5-0.2-0.8-0.2
				c-0.4-0.1-0.6-0.2-0.6-0.5c0-0.2,0.3-0.4,0.8-0.5c0.9-0.1,1.7-0.4,2.5-0.8c0.4-0.3,0.8-0.4,1.2-0.5c0.2,0,0.3,0.1,0.3,0.3
				c0,0,0,0,0,0c0,0,0,0.1,0,0.1c0,0.1,0,0.2-0.1,0.3c-0.2,0.7-0.3,1.4-0.3,2.1c0,0.8,0,1.5,0,2.1v12.5c0,0.7,0,1.5,0.2,2.2
				c0.1,0.2,0.2,0.5,0.4,0.6c0.1,0.1,0.3,0.1,0.5,0.1l0.9-0.2c0.3,0,0.4,0.1,0.4,0.4c0,0.1-0.1,0.3-0.2,0.4
				c-0.2,0.1-0.4,0.3-0.6,0.3c-0.3,0.1-0.5,0.2-0.8,0.4c-0.2,0.1-0.4,0.3-0.5,0.4c-0.2,0.2-0.5,0.4-0.8,0.4
				C2732.7,1863.3,2732.2,1862.6,2731.8,1861.3z M2731.5,1851.3c-0.9-1.2-2.3-1.9-3.8-1.9c-1.2,0-2.3,0.5-2.9,1.4
				c-0.8,1.2-1.3,2.6-1.2,4.1c-0.1,1.7,0.5,3.5,1.5,4.8c0.8,1.1,2.1,1.7,3.4,1.7c1.2,0.1,2.4-0.5,3.1-1.4c-0.1-0.4-0.1-0.9-0.1-1.3
				L2731.5,1851.3z"/>
			<path id="Path_423" class="st0" d="M2738.5,1862.8c-0.7,0-1-0.2-1-0.6c0-0.3,0.2-0.4,0.6-0.4l0.8,0.1c0.2,0,0.4,0,0.6-0.1
				c0.2-0.1,0.3-0.3,0.4-0.6c0.2-1.1,0.3-2.3,0.2-3.4v-4.6c0-0.6,0-1.3-0.2-1.9c-0.1-0.2-0.3-0.4-0.5-0.5c-0.3-0.1-0.6-0.2-0.9-0.2
				c-0.4-0.1-0.6-0.2-0.6-0.5c0-0.2,0.3-0.4,0.8-0.5c0.9-0.1,1.7-0.4,2.5-0.7c0.4-0.3,0.8-0.4,1.3-0.5c0.2,0,0.3,0.1,0.3,0.3
				c0,0,0,0.1,0,0.1c0,0.1,0,0.2-0.1,0.3c-0.3,1.4-0.4,2.7-0.3,4.1v4.7c-0.1,1.1,0,2.2,0.2,3.3c0.1,0.3,0.2,0.5,0.4,0.7
				c0.2,0.1,0.4,0.1,0.6,0.1l0.8-0.1c0.4,0,0.6,0.1,0.6,0.4c0,0.4-0.3,0.6-1,0.6c-0.4,0-0.8,0-1.2-0.1c-0.5-0.1-0.9-0.1-1.4-0.1
				c-0.5,0-1,0-1.4,0.1C2739.4,1862.8,2739,1862.8,2738.5,1862.8z M2742.7,1843.7c0,0.4-0.1,0.8-0.4,1.1c-0.3,0.3-0.7,0.5-1.2,0.4
				c-0.4,0-0.8-0.1-1.1-0.4c-0.3-0.3-0.4-0.6-0.4-0.9c0-0.3,0-0.5,0.1-0.8c0.1-0.2,0.2-0.3,0.4-0.5c0.3-0.3,0.7-0.4,1.1-0.4
				c0.8,0,1.5,0.6,1.5,1.4c0,0,0,0,0,0l0,0L2742.7,1843.7L2742.7,1843.7z"/>
			<path id="Path_424" class="st0" d="M2746.7,1855.6c0-1,0.2-2,0.6-3c0.4-0.9,0.9-1.7,1.6-2.3c1.4-1.4,3.4-2.1,5.4-2
				c1.2,0,2.3,0.3,3.3,0.9c0.8,0.4,1.4,1.2,1.5,2.1c0,0.4-0.3,0.7-0.9,0.9c-0.1,0-0.3,0-0.4,0c-0.5,0-0.8-0.3-1.1-1
				c-0.5-1.2-1.7-1.9-2.9-1.8c-1.2,0-2.3,0.5-3.1,1.5c-0.9,1.2-1.4,2.7-1.3,4.2c-0.1,1.7,0.4,3.3,1.4,4.7c0.9,1.2,2.3,1.9,3.9,1.9
				c1.1,0,2.2-0.5,2.9-1.3c0.4-0.4,0.6-0.5,0.8-0.5c0.3,0,0.5,0.2,0.6,0.4c0,0,0,0.1,0,0.1c0,0.4-0.4,0.8-1.1,1.3
				c-1.3,0.9-2.8,1.4-4.3,1.3c-1.9,0.1-3.7-0.7-5-2.1C2747.2,1859.5,2746.6,1857.6,2746.7,1855.6z"/>
			<path id="Path_425" class="st0" d="M2761.9,1862.8c-0.7,0-1-0.2-1-0.6c0-0.3,0.2-0.4,0.6-0.4l0.8,0.1c0.2,0,0.4,0,0.6-0.1
				c0.2-0.1,0.3-0.3,0.4-0.6c0.2-1.1,0.3-2.3,0.2-3.4v-4.6c0-0.6,0-1.3-0.2-1.9c-0.1-0.2-0.3-0.4-0.5-0.5c-0.3-0.1-0.6-0.2-0.9-0.2
				c-0.4-0.1-0.6-0.2-0.6-0.5c0-0.2,0.3-0.4,0.8-0.5c0.9-0.1,1.7-0.4,2.5-0.7c0.4-0.3,0.8-0.4,1.3-0.5c0.2,0,0.3,0.1,0.4,0.3
				c0,0,0,0.1,0,0.1c0,0.1,0,0.2-0.1,0.3c-0.3,1.4-0.4,2.7-0.4,4.1v4.7c-0.1,1.1,0,2.2,0.2,3.3c0.1,0.3,0.2,0.5,0.4,0.7
				c0.2,0.1,0.4,0.1,0.6,0.1l0.8-0.1c0.4,0,0.6,0.1,0.6,0.4c0,0.4-0.3,0.6-1,0.6c-0.4,0-0.8,0-1.2-0.1c-0.5-0.1-0.9-0.1-1.4-0.1
				c-0.5,0-1,0-1.4,0.1C2762.7,1862.8,2762.3,1862.8,2761.9,1862.8z M2766.1,1843.7c0,0.4-0.1,0.8-0.4,1.1c-0.3,0.3-0.7,0.5-1.2,0.4
				c-0.4,0-0.8-0.1-1.1-0.4c-0.3-0.3-0.4-0.6-0.4-0.9c0-0.3,0-0.5,0.1-0.8c0.1-0.2,0.2-0.3,0.4-0.5c0.3-0.3,0.7-0.4,1.1-0.4
				c0.8,0,1.5,0.6,1.5,1.4c0,0,0,0,0,0l0,0L2766.1,1843.7L2766.1,1843.7z"/>
			<path id="Path_426" class="st0" d="M2770.6,1862.8c-0.7,0-1-0.2-1-0.6c0-0.3,0.2-0.4,0.6-0.4l0.8,0.1c0.2,0,0.4,0,0.6-0.1
				c0.2-0.1,0.3-0.3,0.4-0.6c0.2-1.1,0.3-2.3,0.2-3.4v-4.5c0-0.6,0-1.3-0.2-1.9c-0.1-0.2-0.3-0.4-0.5-0.5c-0.3-0.1-0.6-0.2-0.9-0.2
				c-0.4-0.1-0.6-0.2-0.6-0.5c0-0.2,0.3-0.4,0.8-0.5c0.9-0.1,1.8-0.4,2.6-0.8c0.4-0.3,0.8-0.4,1.2-0.5c0.2,0,0.3,0.1,0.3,0.3v0
				c0,0,0,0.1,0,0.1c0,0.1,0,0.2-0.1,0.3c-0.2,0.8-0.3,1.6-0.3,2.4c0.5-0.9,1.3-1.7,2.2-2.3c0.8-0.5,1.7-0.8,2.6-0.8
				c0.7,0,1.5,0.1,2.2,0.3c0.6,0.2,1.1,0.5,1.5,1c0.9,1.1,1.4,2.6,1.3,4v4.2c0,1.1,0,2.2,0.2,3.3c0,0.3,0.2,0.5,0.4,0.7
				c0.2,0.1,0.4,0.1,0.6,0.1l0.8-0.1c0.4,0,0.6,0.1,0.6,0.4c0,0.4-0.3,0.6-1,0.6c-0.4,0-0.8,0-1.3-0.1c-0.5-0.1-0.9-0.1-1.4-0.1
				c-0.5,0-1,0-1.4,0.1c-0.4,0.1-0.8,0.1-1.3,0.1c-0.7,0-1-0.2-1-0.6c0-0.3,0.2-0.4,0.6-0.4l0.8,0.1c0.2,0,0.4,0,0.6-0.1
				c0.2-0.1,0.3-0.3,0.4-0.6c0.2-1.1,0.3-2.3,0.2-3.4v-3.5c0-2.9-1.1-4.3-3.2-4.3c-1.4,0-2.8,0.8-3.5,2c-0.3,0.6-0.6,1.2-0.7,1.8v4
				c0,1.1,0,2.2,0.2,3.3c0,0.3,0.2,0.5,0.4,0.7c0.2,0.1,0.4,0.1,0.6,0.1l0.8-0.1c0.4,0,0.6,0.1,0.6,0.4c0,0.4-0.3,0.6-1,0.6
				c-0.4,0-0.8,0-1.2-0.1c-0.5-0.1-1-0.1-1.5-0.1c-0.5,0-1,0-1.5,0.1C2771.4,1862.8,2771,1862.8,2770.6,1862.8z"/>
			<path id="Path_427" class="st0" d="M2790,1860.9c-0.6-0.7-1.1-1.5-1.4-2.3c-0.3-1-0.5-2-0.5-3c0-1,0.2-2,0.6-3
				c1.1-2.7,3.7-4.4,6.6-4.4c1.5-0.1,3,0.5,4,1.6c1,1.1,1.5,2.5,1.5,3.9c0,0.4,0,0.7-0.2,1c-0.1,0.2-0.3,0.3-0.5,0.3
				c-0.2,0-0.5,0.1-0.8,0.1s-0.8,0.1-1.3,0.1s-1.1,0.1-1.7,0.1s-1.3,0.1-1.9,0.1c-1.5,0.1-2.7,0.2-3.6,0.3c0.2,2.7,1.3,4.5,3.1,5.3
				c0.6,0.3,1.3,0.4,1.9,0.4c1.3,0.1,2.5-0.4,3.5-1.3c0.4-0.4,0.6-0.5,0.8-0.5c0.4,0,0.5,0.2,0.5,0.7c0,0.3-0.2,0.6-0.5,0.8
				c-0.4,0.4-0.8,0.7-1.3,1c-1.1,0.6-2.3,0.9-3.5,0.9c-1.1,0-2.2-0.2-3.3-0.6C2791.3,1862.1,2790.6,1861.6,2790,1860.9z
				 M2790.8,1854.7c4.8-0.2,7.3-0.5,7.5-0.8c0.1-0.3,0.2-0.6,0.1-0.9c0-0.5-0.1-1-0.3-1.5c-0.2-0.4-0.4-0.9-0.8-1.2
				c-0.7-0.7-1.6-1-2.5-1c-1.1,0-2.2,0.5-2.8,1.4C2791.1,1851.9,2790.7,1853.3,2790.8,1854.7L2790.8,1854.7z"/>
		</g>
	</g>
	<g id="Group_140">
		<g id="Group_139">
			<g id="Group_136">
				<path id="Path_428" class="st1" d="M2490.2,1798.1c0.4,0,0.7,0,1.1,0c-20.6,0.6-36.8,17.7-36.2,38.3s17.7,36.8,38.3,36.2
					c19.7-0.6,35.6-16.4,36.2-36.2c0,0.4,0,0.7,0,1.1c0,21.8-17.7,39.4-39.4,39.4c-21.8,0-39.4-17.7-39.4-39.4
					C2450.8,1815.8,2468.4,1798.1,2490.2,1798.1L2490.2,1798.1L2490.2,1798.1z"/>
				<path id="Path_429" class="st2" d="M2492.4,1800.3c19.4,0,35.1,15.7,35.1,35.1s-15.7,35.1-35.1,35.1h0c-0.2,0-0.5,0-0.7,0
					c18.6-0.4,33.3-15.8,32.9-34.4s-15.8-33.3-34.4-32.9c-18,0.4-32.5,14.9-32.9,32.9c0-0.2,0-0.5,0-0.7
					C2457.3,1816,2473,1800.3,2492.4,1800.3z"/>
			</g>
			<g id="Group_138">
				<g id="Group_137">
					<path id="Path_430" class="st0" d="M2490.9,1849.6l0.2-0.2c-0.1,3.5-0.3,6.8-0.4,9.7c0,0.4,0,0.7-0.1,1.1
						c0,0.6-0.1,1.2-0.1,1.7c0,0.4,0,0.7-0.1,1.1c-0.1,2.4-0.3,4.3-0.4,5.3c0,0.4-0.3,0.7-0.6,0.7s-0.7-0.3-0.7-0.6l0,0v-0.1
						c-0.1-1.1-0.2-2.9-0.4-5.4c-0.1-1.1-0.1-2.2-0.2-3.2c-0.1-1.2-0.1-2.4-0.2-3.5l-0.1-1.9c0-0.3-0.3-1.6-0.1-1.8s0.4-0.4,0.6-0.6
						C2489.3,1851,2490.1,1850.3,2490.9,1849.6z"/>
					<path id="Path_431" class="st0" d="M2489.2,1821.3c1,0,2,0.3,2.9,0.9c-0.1,2.3-0.2,5.1-0.3,8.2c0,0.4,0,0.9,0,1.4
						c-0.1,1.5-0.1,3.1-0.2,4.8c0,0.8-0.1,1.7-0.1,2.5c0,0.9-0.1,1.8-0.1,2.6c-0.6,1.7-1.7,3.2-3.1,4.3c-0.2,0.2-0.4,0.3-0.6,0.5
						c-0.2-4.2-0.3-8.5-0.5-12.5c0-0.4,0-0.8,0-1.2c-0.1-1.5-0.1-2.9-0.1-4.2c0-0.5,0-0.9,0-1.4c-0.1-1.8-0.1-3.5-0.2-5
						C2487.6,1821.6,2488.4,1821.3,2489.2,1821.3z"/>
					<path id="Path_432" class="st0" d="M2496.9,1858.9c-0.3,0.8-1.5,1.6-2.3,2c-0.9,0.5-1.9,0.8-2.9,0.9l0-0.4c0-0.3,0-0.7,0.1-1.1
						C2493.6,1860.2,2495.3,1859.7,2496.9,1858.9z"/>
					<path id="Path_433" class="st0" d="M2493.5,1845.8c-1,1.1-2.1,2.1-3.3,3.1c-2.1,1.8-5.5,4.5-4.7,7.6c0.3,1,0.9,1.9,1.7,2.5
						c0,0.2,0,0.4,0,0.6c0,0.5,0,1,0.1,1.5l0,0.3c-1.4-0.5-2.7-1.5-3.5-2.8c-1.2-2.1-1.1-4.8,0.3-6.8c1.1-1.6,2.5-3,4-4.2
						c0.7-0.6,1.3-1.2,2-1.9c1.2-1.3,2-2.9,2.4-4.6c0.1-0.6,0.2-1.3,0.1-2v-0.1c0-0.8,0.1-1.7,0.1-2.5c0-1.1,0.1-2.2,0.1-3.2l0-0.5
						c0.4,0.4,0.7,0.7,1,1.1C2496.9,1837.6,2496.7,1842.1,2493.5,1845.8z"/>
					<path id="Path_434" class="st0" d="M2499.1,1823.3c-0.2,2.3-2.7,1.4-3.7,0.2c-0.6-0.7-1.4-1.3-2.2-1.9c-1.2-0.8-2.6-1.3-4-1.3
						c-0.6,0-1.2,0.1-1.8,0.3c-2.1,0.9-3.1,3.4-2.2,5.6c0.2,0.5,0.5,0.9,0.9,1.3c0,0.3,0,0.7,0,1c0,0.6,0,1.2,0.1,1.9
						c0,0.6,0,1.1,0.1,1.7c-1-0.6-2-1.3-3-2c-2.5-2.1-4.1-5.7-2.8-8.8c1.6-3.5,5.2-5.8,9.1-5.7c3,0.1,5.8,1.4,7.9,3.5
						C2498.4,1820.2,2499.1,1821.7,2499.1,1823.3z"/>
				</g>
				<path id="Path_435" class="st0" d="M2492.5,1809.3c0-1.6-1.3-3-3-3c-1.6,0-3,1.3-3,3c0,0.8,0.4,1.6,1,2.2
					c-0.4,1-0.6,2.1-0.7,3.2c0.9-0.2,1.8-0.3,2.7-0.3c0.9,0,1.8,0.1,2.7,0.3c-0.1-1.1-0.3-2.2-0.7-3.2
					C2492.2,1810.9,2492.5,1810.1,2492.5,1809.3z"/>
			</g>
		</g>
	</g>
</g>
</svg>
